<?xml version="1.0" encoding="utf-8"?>
<svg id="kornull" viewBox="0 0 156 56" version="1.1" xmlns="http://www.w3.org/2000/svg" x="0px" y="0px" style="enable-background:new 0 0 336 235.2;" ><rect id="ee-background" x="0" y="0" width="156" height="56" style="fill: white; fill-opacity: 0; pointer-events: none;"/><defs><style id="ee-google-fonts">@import url(https://fonts.googleapis.com/css?family=Aclonica:400);</style><path id="text-path-0" d="M 119.79096984863281 152.2335662841797 A 100 22 0 0 1 260.26678466796875 152.2335662841797 A 100 22 0 0 1 119.79096984863281 152.2335662841797 Z" style="fill: none; stroke: red; stroke-width: 2;"/></defs><path d="M 130.9652557373047 150.12814331054688 L 124.64681243896484 151.08177185058594 L 121.18449401855469 128.14158630371094 L 127.50293731689453 127.18795776367188 L 129.15200805664062 138.1142120361328 C 130.8839874267578 136.3223419189453 132.45925903320312 134.38555908203125 133.8778076171875 132.3038787841797 C 135.29637145996094 130.22219848632812 136.45323181152344 128.01483154296875 137.34840393066406 125.68177032470703 L 141.6694793701172 125.02960205078125 C 140.83274841308594 127.12460327148438 139.8118438720703 129.1159210205078 138.60671997070312 131.0035858154297 C 137.40818786621094 132.89024353027344 136.05941772460938 134.6748504638672 134.56039428710938 136.35740661621094 L 145.67861938476562 147.90748596191406 L 139.08331298828125 148.9029083251953 L 130.70999145507812 140.19500732421875 C 130.5265350341797 140.36427307128906 130.3453826904297 140.52645874023438 130.16651916503906 140.6815643310547 C 129.99424743652344 140.83566284179688 129.80929565429688 140.9950408935547 129.61166381835938 141.1597137451172 L 130.9652557373047 150.12814331054688 ZM 165.85968017578125 137.05645751953125 C 165.93502807617188 138.02017211914062 165.8763427734375 138.9375457763672 165.6836395263672 139.8085479736328 C 165.4970703125 140.67237854003906 165.20252990722656 141.4811248779297 164.800048828125 142.2347869873047 C 164.40420532226562 142.98793029785156 163.90628051757812 143.6754913330078 163.3062744140625 144.2974853515625 C 162.7062530517578 144.9194793701172 162.0396728515625 145.45974731445312 161.30650329589844 145.91827392578125 C 160.57334899902344 146.37681579589844 159.7797393798828 146.7464599609375 158.92568969726562 147.02720642089844 C 158.06500244140625 147.3084716796875 157.17605590820312 147.48497009277344 156.25885009765625 147.55667114257812 C 155.3350067138672 147.62889099121094 154.4327392578125 147.59243774414062 153.55209350585938 147.44729614257812 C 152.66477966308594 147.30267333984375 151.82337951660156 147.06085205078125 151.02786254882812 146.72181701660156 C 150.23236083984375 146.38279724121094 149.4899139404297 145.9526824951172 148.80052185058594 145.43148803710938 C 148.11114501953125 144.91030883789062 147.51242065429688 144.3084716796875 147.0043487548828 143.62599182128906 C 146.4896240234375 142.94403076171875 146.07273864746094 142.18756103515625 145.753662109375 141.3565673828125 C 145.42794799804688 140.52609252929688 145.22767639160156 139.63230895996094 145.15286254882812 138.67523193359375 C 145.07855224609375 137.7248077392578 145.13775634765625 136.8140869140625 145.33045959472656 135.94308471679688 C 145.51651000976562 135.07260131835938 145.810791015625 134.26052856445312 146.21327209472656 133.50686645507812 C 146.60911560058594 132.75372314453125 147.10704040527344 132.066162109375 147.70704650878906 131.4441680908203 C 148.30654907226562 130.81553649902344 148.97312927246094 130.2752685546875 149.70681762695312 129.82337951660156 C 150.43997192382812 129.36485290527344 151.23358154296875 128.99520874023438 152.08763122558594 128.71444702148438 C 152.93502807617188 128.43421936035156 153.82064819335938 128.25799560546875 154.7445068359375 128.18577575683594 C 155.6616973876953 128.11407470703125 156.56727600097656 128.1502685546875 157.4612274169922 128.2943572998047 C 158.34852600097656 128.43898010253906 159.18994140625 128.68080139160156 159.98544311523438 129.01983642578125 C 160.7804412841797 129.3522186279297 161.52288818359375 129.78233337402344 162.21278381347656 130.31016540527344 C 162.9021759033203 130.83135986328125 163.5009002685547 131.4331817626953 164.00897216796875 132.11566162109375 C 164.52369689941406 132.79762268066406 164.94058227539062 133.55409240722656 165.25965881347656 134.3850860595703 C 165.5853729248047 135.21556091308594 165.78538513183594 136.10601806640625 165.85968017578125 137.05645751953125 M 160.33653259277344 137.4882354736328 C 160.29652404785156 136.97645568847656 160.22427368164062 136.43711853027344 160.11976623535156 135.87020874023438 C 160.0152587890625 135.3032989501953 159.8716583251953 134.7494659423828 159.68896484375 134.20872497558594 C 159.50625610351562 133.66798400878906 159.2752685546875 133.15109252929688 158.99600219726562 132.65802001953125 C 158.7172393798828 132.17160034179688 158.38333129882812 131.7496795654297 157.99429321289062 131.39224243164062 C 157.61241149902344 131.0409393310547 157.16673278808594 130.77151489257812 156.6572265625 130.583984375 C 156.147216796875 130.3898162841797 155.5665283203125 130.3181915283203 154.91519165039062 130.36911010742188 C 154.29042053222656 130.41795349121094 153.74786376953125 130.577392578125 153.2875213623047 130.84742736816406 C 152.82102966308594 131.12461853027344 152.42367553710938 131.4733123779297 152.0954132080078 131.8935089111328 C 151.7666473388672 132.30706787109375 151.50289916992188 132.7823944091797 151.3041534423828 133.31951904296875 C 151.10488891601562 133.85000610351562 150.9503936767578 134.39703369140625 150.8406524658203 134.96063232421875 C 150.737548828125 135.5237274169922 150.67486572265625 136.09033203125 150.65255737304688 136.66046142578125 C 150.62974548339844 137.22396850585938 150.63755798339844 137.75161743164062 150.67601013183594 138.2434539794922 C 150.71498107910156 138.74192810058594 150.78952026367188 139.26773071289062 150.89962768554688 139.82083129882812 C 151.01025390625 140.3805694580078 151.16050720214844 140.9338836669922 151.35037231445312 141.48074340820312 C 151.54635620117188 142.02044677734375 151.78399658203125 142.53683471679688 152.0632781982422 143.02989196777344 C 152.342041015625 143.5163116455078 152.6761932373047 143.94155883789062 153.0657501220703 144.30564880371094 C 153.455322265625 144.6697235107422 153.9017791748047 144.94911193847656 154.4051513671875 145.143798828125 C 154.90240478515625 145.3456573486328 155.46339416503906 145.4221649169922 156.08816528320312 145.3733367919922 C 156.72621154785156 145.32345581054688 157.28538513183594 145.1627197265625 157.76568603515625 144.89111328125 C 158.23985290527344 144.62669372558594 158.6413116455078 144.28770446777344 158.97007751464844 143.87416076660156 C 159.29885864257812 143.46060180664062 159.55979919433594 142.99217224121094 159.75294494628906 142.4688720703125 C 159.94607543945312 141.945556640625 160.09393310546875 141.39903259277344 160.19650268554688 140.82931518554688 C 160.2996063232422 140.2662353515625 160.3587188720703 139.69654846191406 160.37384033203125 139.1202850341797 C 160.38949584960938 138.55067443847656 160.37705993652344 138.00665283203125 160.33653259277344 137.4882354736328 ZM 186.12657165527344 128.85733032226562 L 183.19480895996094 134.01834106445312 C 183.05650329589844 133.58859252929688 182.87684631347656 133.1099395751953 182.65585327148438 132.58236694335938 C 182.4413604736328 132.0479736328125 182.1778564453125 131.5515594482422 181.86537170410156 131.09317016601562 C 181.55288696289062 130.634765625 181.1824951171875 130.25462341308594 180.75418090820312 129.95274353027344 C 180.32569885253906 129.64419555664062 179.83822631835938 129.49729919433594 179.29176330566406 129.51205444335938 C 178.7852783203125 129.52574157714844 178.34893798828125 129.6675567626953 177.98277282714844 129.9375457763672 C 177.62307739257812 130.20068359375 177.31884765625 130.5423583984375 177.07009887695312 130.96255493164062 C 176.82135009765625 131.38275146484375 176.62078857421875 131.85833740234375 176.46839904785156 132.38931274414062 C 176.31582641601562 132.9136199951172 176.2033233642578 133.440185546875 176.1309051513672 133.968994140625 C 176.052001953125 134.50465393066406 176.00254821777344 135.01951599121094 175.9825439453125 135.51356506347656 C 175.9623565673828 136.00096130371094 175.95703125 136.42124938964844 175.96656799316406 136.7744598388672 L 176.21841430664062 146.10105895996094 L 170.76040649414062 146.24842834472656 L 170.25807189941406 127.64521789550781 L 172.35731506347656 127.58853149414062 L 174.6733856201172 131.85757446289062 C 174.9612274169922 131.15621948242188 175.29049682617188 130.50709533691406 175.6611785888672 129.9102020263672 C 176.03187561035156 129.3133087158203 176.46136474609375 128.79486083984375 176.94967651367188 128.3548583984375 C 177.44480895996094 127.92133331298828 178.009033203125 127.57598114013672 178.64231872558594 127.31878662109375 C 179.27578735351562 127.06826782226562 179.99571228027344 126.93212127685547 180.8020782470703 126.91034698486328 C 181.21527099609375 126.89918518066406 181.6826629638672 126.91991424560547 182.2042694091797 126.97251892089844 C 182.71939086914062 127.03196716308594 183.2257843017578 127.13833618164062 183.7234344482422 127.2916259765625 C 184.22108459472656 127.4449234008789 184.68344116210938 127.64917755126953 185.11048889160156 127.90441131591797 C 185.53753662109375 128.15965270996094 185.876220703125 128.47727966308594 186.12657165527344 128.85733032226562 ZM 208.86630249023438 135.50482177734375 C 208.84140014648438 136.76458740234375 208.66221618652344 138.0712890625 208.32875061035156 139.4249725341797 C 207.99513244628906 140.78530883789062 207.54208374023438 142.1166229248047 206.96957397460938 143.4188995361328 C 206.39720153808594 144.71450805664062 205.71969604492188 145.93136596679688 204.9370574951172 147.0694580078125 C 204.14761352539062 148.21408081054688 203.2880859375 149.19395446777344 202.3584747314453 150.0090789794922 L 200.34078979492188 148.85899353027344 C 200.637939453125 148.33143615722656 200.92308044433594 147.73695373535156 201.19619750976562 147.07554626464844 C 201.46266174316406 146.4140167236328 201.70989990234375 145.71209716796875 201.9379425048828 144.96978759765625 C 202.15933227539062 144.22735595703125 202.36117553710938 143.46119689941406 202.54347229003906 142.6713104248047 C 202.72592163085938 141.874755859375 202.8814239501953 141.09100341796875 203.01002502441406 140.320068359375 C 203.1387481689453 139.54244995117188 203.2404022216797 138.78431701660156 203.3150177001953 138.045654296875 C 203.38949584960938 137.3136444091797 203.4329833984375 136.63104248046875 203.44549560546875 135.99783325195312 C 203.45379638671875 135.57791137695312 203.44602966308594 135.12767028808594 203.42218017578125 134.6470947265625 C 203.39820861816406 134.17320251464844 203.34097290039062 133.6953125 203.25047302246094 133.2134246826172 C 203.15330505371094 132.73141479492188 203.0257568359375 132.268798828125 202.86781311035156 131.82559204101562 C 202.70321655273438 131.38226318359375 202.48089599609375 130.99111938476562 202.20086669921875 130.65219116210938 C 201.92750549316406 130.31338500976562 201.58950805664062 130.0399932861328 201.18687438964844 129.83200073242188 C 200.79103088378906 129.61746215820312 200.31651306152344 129.50474548339844 199.76327514648438 129.49380493164062 C 199.2300567626953 129.4832763671875 198.75111389160156 129.5938262939453 198.32644653320312 129.8254852294922 C 197.9016571044922 130.0637969970703 197.5254669189453 130.3730926513672 197.19789123535156 130.7533721923828 C 196.8701934814453 131.1403045654297 196.58468627929688 131.58474731445312 196.3413848876953 132.08670043945312 C 196.09808349609375 132.5886688232422 195.9012451171875 133.10154724121094 195.75086975097656 133.62533569335938 C 195.59368896484375 134.15567016601562 195.47671508789062 134.67678833007812 195.39991760253906 135.18870544433594 C 195.32298278808594 135.70729064941406 195.28050231933594 136.1698760986328 195.27247619628906 136.5764617919922 L 195.088134765625 145.90464782714844 L 189.62921142578125 145.79676818847656 L 189.99688720703125 127.19039916992188 L 192.09646606445312 127.23189544677734 L 194.5004425048828 131.61024475097656 C 194.82127380371094 130.8964385986328 195.2107696533203 130.25067138671875 195.6689453125 129.67294311523438 C 196.1339111328125 129.08868408203125 196.65382385253906 128.59219360351562 197.22866821289062 128.1834716796875 C 197.81019592285156 127.77488708496094 198.44972229003906 127.46746063232422 199.14727783203125 127.26119995117188 C 199.84494018554688 127.04827880859375 200.5937042236328 126.94971466064453 201.3935546875 126.96552276611328 C 202.68663024902344 126.99107360839844 203.80560302734375 127.22322845458984 204.7504425048828 127.66197967529297 C 205.70208740234375 128.0941925048828 206.4871368408203 128.6898193359375 207.10560607910156 129.4488525390625 C 207.72406005859375 130.2078857421875 208.17645263671875 131.10366821289062 208.4627685546875 132.13619995117188 C 208.75576782226562 133.16885375976562 208.89027404785156 134.29173278808594 208.86630249023438 135.50482177734375 ZM 221.95281982421875 123.7662353515625 C 221.59185791015625 124.60697937011719 221.26812744140625 125.48412322998047 220.9816436767578 126.39765930175781 C 220.69569396972656 127.30455017089844 220.44627380371094 128.21434020996094 220.23342895507812 129.1270294189453 C 220.02003479003906 130.04637145996094 219.84120178222656 130.95172119140625 219.69691467285156 131.84310913085938 C 219.55926513671875 132.73501586914062 219.4585418701172 133.58303833007812 219.39474487304688 134.38717651367188 C 219.34780883789062 134.97865295410156 219.2986602783203 135.64016723632812 219.24729919433594 136.37173461914062 C 219.18878173828125 137.10940551757812 219.1726531982422 137.86048889160156 219.1989288330078 138.62496948242188 C 219.21856689453125 139.388916015625 219.28936767578125 140.14019775390625 219.4113311767578 140.8788299560547 C 219.53329467773438 141.61744689941406 219.7512969970703 142.283447265625 220.06533813476562 142.87681579589844 C 220.37887573242188 143.47682189941406 220.80462646484375 143.9687042236328 221.34262084960938 144.3524627685547 C 221.88009643554688 144.7428741455078 222.56419372558594 144.9710235595703 223.39491271972656 145.0369415283203 C 224.13259887695312 145.09547424316406 224.7772979736328 145.01956176757812 225.32899475097656 144.8092041015625 C 225.8806915283203 144.59884643554688 226.3594970703125 144.29576110839844 226.76541137695312 143.89996337890625 C 227.1652069091797 143.4969940185547 227.4969024658203 143.02508544921875 227.760498046875 142.48423767089844 C 228.02357482910156 141.95004272460938 228.2425079345703 141.3822479248047 228.41729736328125 140.78085327148438 C 228.58543395996094 140.17892456054688 228.71421813964844 139.56719970703125 228.8036651611328 138.94566345214844 C 228.8936309814453 138.31747436523438 228.96102905273438 137.72093200683594 229.00584411621094 137.1560516357422 L 230.01748657226562 124.40612030029297 L 236.38746643066406 124.91153717041016 L 235.45492553710938 136.6645965576172 C 235.32151794433594 138.34597778320312 234.93150329589844 139.8899688720703 234.28488159179688 141.29656982421875 C 233.6321563720703 142.6959991455078 232.77487182617188 143.89193725585938 231.71304321289062 144.88438415527344 C 230.65838623046875 145.8707275390625 229.41590881347656 146.61143493652344 227.98561096191406 147.1065216064453 C 226.5552978515625 147.6016082763672 224.99945068359375 147.78245544433594 223.3180694580078 147.6490478515625 C 222.16171264648438 147.5572967529297 221.09800720214844 147.30905151367188 220.12698364257812 146.90431213378906 C 219.15594482421875 146.49957275390625 218.28134155273438 145.9754180908203 217.5031280517578 145.33184814453125 C 216.71775817871094 144.69439697265625 216.03054809570312 143.95773315429688 215.4414825439453 143.12185668945312 C 214.85958862304688 142.2798614501953 214.38624572753906 141.37625122070312 214.0214385986328 140.41104125976562 C 213.6632843017578 139.44635009765625 213.41209411621094 138.44000244140625 213.26788330078125 137.39198303222656 C 213.12417602539062 136.33731079101562 213.1075439453125 135.28268432617188 213.2179718017578 134.22811889648438 L 213.2440643310547 133.89915466308594 C 213.31874084472656 133.04237365722656 213.47193908691406 132.1650848388672 213.70367431640625 131.2672576904297 C 213.94259643554688 130.3633270263672 214.2349395751953 129.4602813720703 214.58070373535156 128.55813598632812 C 214.9259490966797 127.66264343261719 215.32716369628906 126.77827453613281 215.78433227539062 125.905029296875 C 216.2420196533203 125.025146484375 216.73976135253906 124.18856048583984 217.2775115966797 123.39527130126953 L 221.95281982421875 123.7662353515625 ZM 244.87489318847656 149.4869384765625 L 239.47425842285156 148.7550048828125 L 243.12449645996094 121.82123565673828 L 245.20547485351562 122.10326385498047 L 247.76634216308594 128.1519775390625 L 244.87489318847656 149.4869384765625 ZM 255.46080017089844 151.24273681640625 L 250.09579467773438 150.28395080566406 L 254.87744140625 123.52786254882812 L 256.9447021484375 123.89730072021484 L 259.24847412109375 130.0485382080078 L 255.46080017089844 151.24273681640625 Z" transform="matrix(1.0858383178710938, 0, 0, 1.0858383178710938, -130.0835418701172, -121.53157043457031)" style="white-space: pre; color: rgb(51, 51, 51); fill-opacity: 0.99;"/></svg>